<svg width="200" height="200" viewBox="0 0 200 200" fill="none" xmlns="http://www.w3.org/2000/svg">
<path d="M116.6 91.5999C116.7 91.4999 116.8 91.4999 116.8 91.3999C117.8 90.4999 118.9 89.7999 120.1 89.0999C121.7 88.2999 123.3 87.7999 125.1 87.5999C126.7 87.3999 128.3 87.5999 129.8 88.1999C131.1 88.6999 132.2 89.3999 133.1 90.3999C133.5 90.6999 133.8 91.1999 134 91.5999C134.7 92.6999 135.2 93.8999 135.4 95.0999C135.7 96.4999 135.7 97.8999 135.5 99.2999C135.3 100.7 135 102.1 134.8 103.4C134.7 103.9 134.6 104.4 134.5 105C134.3 105.8 134.2 106.7 134 107.5C133.8 108.5 133.6 109.6 133.5 110.6C133.4 111.1 133.3 111.6 133.2 112.1C131.2 112.1 129.2 112.1 127.2 112.1C127.2 112.1 127.1 112.1 127 112.1C127 112 127 111.8 127.1 111.7C127.3 110.5 127.5 109.3 127.7 108.1C127.8 107.3 128 106.4 128.1 105.6C128.3 104.6 128.5 103.5 128.7 102.5C128.8 101.8 129 101.1 129.1 100.4C129.3 99.4999 129.3 98.4999 129 97.5999C128.5 95.7999 127.4 94.5999 125.7 93.9999C125.2 93.7999 124.7 93.7999 124.1 93.8999C121.6 94.3999 119.7 95.7999 118.6 98.0999C118.4 98.5999 118.2 99.0999 118.1 99.6999C118 100.5 117.8 101.3 117.7 102.2C117.5 103.3 117.3 104.3 117.1 105.4C116.8 107 116.5 108.6 116.2 110.3C116.1 110.9 116 111.5 115.9 112.1C115.8 112.1 115.8 112.1 115.7 112.1C113.8 112.1 111.8 112.1 109.9 112.1C109.9 112.1 109.9 112.1 109.8 112.1C109.8 112 109.8 111.9 109.8 111.8C110.1 110 110.4 108.3 110.8 106.5C111.2 104.5 111.5 102.4 111.9 100.4C112.1 99.3999 112.1 98.3999 111.8 97.4999C111.2 95.4999 109.9 94.2999 107.9 93.8999C107.5 93.7999 107.2 93.7999 106.8 93.7999C105.7 93.7999 104.5 93.7999 103.4 93.7999C103.3 93.7999 103.2 93.7999 103.1 93.7999C102.4 93.7999 101.9 94.2999 101.8 94.9999C101.7 95.2999 101.7 95.6999 101.6 95.9999C101.3 97.8999 100.9 99.7999 100.6 101.7C100.3 103.6 99.9 105.4 99.6 107.3C99.3 108.8 99.1 110.2 98.8 111.7C98.8 111.8 98.7 112 98.7 112.1H92.5C92.6 111.7 92.6 111.3 92.7 111C93 109.4 93.2 107.9 93.5 106.3C93.8 104.9 94 103.5 94.3 102C94.7 99.7999 95.1 97.5999 95.4 95.3999C95.7 93.8999 95.9 92.3999 96.2 90.8999C96.6 89.1999 97.6 88.0999 99.3 87.6999C99.5 87.5999 99.8 87.5999 100 87.5999C103.2 87.5999 106.4 87.5999 109.6 87.5999C110.6 87.5999 111.5 87.7999 112.4 88.1999C112.5 88.1999 112.6 88.2999 112.6 88.2999C114.2 88.8999 115.5 89.8999 116.5 91.2999C116.6 91.3999 116.6 91.4999 116.6 91.5999Z" fill="#0080FA"/>
<path d="M83.2 108.7C83 108.9 82.8 109.2 82.6 109.4C81.7 110.5 80.5 111.2 79.2 111.6C77.8 112 76.4 112.2 74.9 111.9C74.1 111.8 73.2 111.6 72.4 111.3C70.5 110.6 69.1 109.4 68.1 107.7C67.6 106.9 67.3 106 67.1 105.1C66.8 103.4 66.6 101.8 66.9 100.1C67.1 98.9999 67.3 97.8999 67.5 96.6999C67.7 95.4999 67.9 94.3999 68.1 93.1999C68.4 91.3999 68.7 89.5999 69.1 87.7999C69.1 87.6999 69.1 87.6999 69.2 87.5999H75.6C75.6 87.7999 75.6 87.9999 75.5 88.0999C75.3 89.3999 75 90.7999 74.8 92.0999C74.4 93.9999 74.1 95.9999 73.8 97.8999C73.7 98.7999 73.4 99.5999 73.4 100.5C73.4 101.1 73.4 101.7 73.5 102.4C74 104.1 75.2 104.9 76.9 105C77.6 105 78.3 104.9 78.9 104.7C80 104.5 81 104.1 81.9 103.4C82.9 102.7 83.7 101.9 84.3 100.8C85 99.6999 85.3 98.5999 85.5 97.3999C85.7 96.3999 85.9 95.3999 86 94.3999C86.2 93.0999 86.5 91.7999 86.7 90.4999C86.9 89.4999 87 88.4999 87.2 87.5999H87.3C89.4 87.5999 91.4 87.5999 93.5 87.5999C93.5 87.6999 93.5 87.7999 93.5 87.8999C93.2 89.6999 92.8 91.4999 92.5 93.2999C92.2 94.8999 91.9 96.4999 91.6 98.1999C91.3 100.1 90.9 102 90.6 104C90.3 105.5 90 106.9 89.8 108.4C89.6 109.7 89.2 111 88.8 112.3C88.3 113.8 87.6 115.2 86.7 116.5C85.3 118.5 83.4 120 81.1 120.9C80.3 121.2 79.5 121.4 78.7 121.6C77.5 121.8 76.3 121.9 75.1 121.9C74.1 121.9 73.1 121.8 72.1 121.6C71.4 121.5 70.8 121.3 70.1 121.2C70 121.2 69.9 121.1 69.9 121.1C70.2 119.1 70.4 117 70.7 115C70.9 114.9 71 115 71.1 115C72.6 115.4 74.2 115.6 75.7 115.6C76.8 115.6 77.8 115.5 78.8 115.1C80.6 114.4 81.9 113.2 82.6 111.3C82.8 110.7 83 110 83.1 109.4C83.3 109 83.3 108.9 83.2 108.7C83.3 108.7 83.3 108.7 83.2 108.7Z" fill="#0080FA"/>
<path d="M54.7 93.8C54.3 93.8 53.9 93.8 53.4 93.8C52.5 93.8 51.5 93.9 50.7 94.3C49.3 94.9 48.2 95.7 47.3 96.9C46.2 98.4 45.8 100 46 101.8C46.2 103.4 47 104.7 48.5 105.4C49.3 105.8 50.1 106 51 105.9C51.3 105.9 51.7 105.8 52 105.8C53.5 105.6 54.9 104.9 56 103.8C57.1 102.8 57.8 101.5 58.1 100C58.4 98.7 58.6 97.5 58.8 96.2C58.9 95.7 58.8 95.3 58.6 94.9C58.2 94.3 57.7 93.8 56.9 93.8C56.2 93.8 55.4 93.8 54.7 93.8ZM62.2 112.1C61.9 112.2 56.6 112.2 56 112.1C56.1 111.1 56.3 110.2 56.4 109.1C56.3 109.2 56.1 109.3 56 109.5C55.3 110.2 54.6 110.8 53.7 111.2C52.3 111.9 50.8 112.3 49.2 112.1C48.3 112 47.3 111.9 46.4 111.6C45.1 111.2 44 110.6 42.9 109.7C41 108.1 39.9 106 39.5 103.5C39.3 101.8 39.4 100.2 39.8 98.5C40.1 97.6 40.4 96.7 40.9 95.8C41.9 93.9 43.2 92.3 44.8 91C46.3 89.8 47.9 88.8 49.7 88.2C51.2 87.7 52.7 87.5 54.3 87.5C56.6 87.5 58.9 87.5 61.1 87.5C61.6 87.5 62.1 87.5 62.6 87.7C63.6 88 64.4 88.6 64.9 89.5C65.5 90.5 65.6 91.5 65.4 92.6C65.2 93.4 65.1 94.2 65 95C64.5 97.8 64 100.5 63.5 103.3C63.3 104.4 63.1 105.6 62.9 106.7C62.6 108.3 62.3 109.9 62.1 111.5C62.3 111.8 62.3 112 62.2 112.1Z" fill="#0080FA"/>
<path d="M149.5 105.8C150.6 105.8 151.6 105.6 152.5 105.1C154.7 104 156.2 102.3 156.7 99.8999C156.9 99.0999 156.9 98.3999 156.7 97.5999C156.2 95.5999 154.8 94.5999 152.9 94.0999C152.2 93.8999 151.6 93.9999 150.9 93.9999C149.9 94.0999 149 94.2999 148.2 94.7999C146.2 95.7999 144.9 97.3999 144.4 99.5999C144.2 100.5 144.1 101.5 144.4 102.4C144.8 103.6 145.5 104.5 146.6 105C147.5 105.6 148.5 105.8 149.5 105.8ZM152.8 87.8999C154.2 87.8999 155.5 88.0999 156.8 88.5999C157.6 88.8999 158.3 89.2999 159 89.6999C159.5 89.9999 159.9 90.3999 160.3 90.6999C161.7 91.9999 162.5 93.5999 163 95.3999C163.4 96.8999 163.4 98.4999 163.1 99.9999C162.7 101.8 162 103.5 160.9 105.1C159.5 107.1 157.8 108.7 155.6 109.8C154.2 110.6 152.7 111.2 151 111.5C149.8 111.7 148.7 111.8 147.5 111.7C146.5 111.6 145.5 111.5 144.5 111.1C142.7 110.5 141.1 109.5 139.9 108C139.2 107.1 138.7 106.2 138.3 105.2C138.1 104.5 137.9 103.8 137.8 103.1C137.5 100.8 137.9 98.6999 138.9 96.5999C140.1 93.9999 142 91.8999 144.4 90.2999C145.6 89.4999 146.8 88.8999 148.1 88.4999C149 88.1999 149.9 87.9999 150.8 87.8999C151.4 87.9999 152.1 87.8999 152.8 87.8999Z" fill="#0080FA"/>
<path d="M170.6 106H185.6C185.6 106.2 185.6 106.4 185.5 106.5C185.3 107.4 185.1 108.3 184.6 109C183.9 110.1 182.9 111 181.6 111.5C180.4 112 179.1 112.2 177.8 112.2C173.1 112.2 168.3 112.2 163.6 112.2C163.5 112.2 163.4 112.2 163.2 112.2C163.2 111.9 163.3 111.6 163.3 111.3C163.6 109.5 164 107.6 164.3 105.8C164.6 104 164.9 102.2 165.3 100.4C165.7 98.1999 166.1 95.9999 166.5 93.8999C166.8 92.1999 167.1 90.4999 167.4 88.7999C167.6 87.7999 167.8 86.7999 167.9 85.7999C168.1 84.8999 168.2 84.0999 168.3 83.1999C168.7 80.9999 170 79.4999 172 78.6999C172.3 78.5999 172.7 78.4999 173.1 78.4999C173.9 78.3999 174.7 78.3999 175.5 78.3999C175.1 80.6999 174.7 82.9999 174.3 85.2999C173.9 87.5999 173.5 89.8999 173.1 92.1999C172.7 94.4999 172.3 96.7999 171.9 99.0999C171.5 101.3 171.1 103.6 170.6 106Z" fill="#0080FA"/>
<path d="M17.4 87.6998C16.3 93.7998 15.2 99.7998 14.1 106C14.6 106 15.1 106 15.6 106C16.1 106 16.6 106 17.1 106C17.6 106 18.1 106 18.6 106H20.1H21.6C22.1 106 22.6 106 23.1 106C23.6 106 24.1 106 24.6 106C25.1 106 25.6 106 26.1 106C26.6 106 27.1 106 27.6 106C28.1 106 28.6 106 29.1 106C29 106.3 29 106.6 28.9 106.9C28.6 108.2 28 109.4 27 110.3C26.2 111 25.3 111.5 24.3 111.8C23.3 112.1 22.2 112.2 21.1 112.2C18.5 112.2 15.8 112.2 13.2 112.2H13C12.4 115.3 11.9 118.4 11.3 121.5C11 121.6 5.79998 121.6 5.09998 121.5C5.09998 121.4 5.09998 121.3 5.09998 121.2C5.39998 119.3 5.79998 117.4 6.09998 115.6C6.49998 113.5 6.79998 111.4 7.19998 109.3C7.59998 107.1 7.99998 104.9 8.39998 102.7C8.69998 101.2 8.99998 99.5998 9.19998 98.0998C9.49998 96.3998 9.79998 94.6998 10.1 93.0998C10.3 91.9998 10.6 90.9998 11.3 90.0998C12.1 88.9998 13.2 88.2998 14.5 87.8998C15.4 87.4998 16.4 87.5998 17.4 87.6998Z" fill="#0080FA"/>
<path d="M17.1 93.7999C17.1 93.4999 17.2 93.2999 17.2 93.0999C17.5 91.8999 18 90.7999 18.8 89.7999C19.5 88.9999 20.4 88.3999 21.5 87.9999C22.4 87.6999 23.3 87.5999 24.2 87.5999C27.4 87.5999 30.7 87.5999 33.9 87.5999C34.6 87.5999 35.3 87.6999 35.9 87.9999C37 88.4999 37.8 89.1999 38.1 90.2999C38.4 91.1999 38.4 92.1999 38.3 93.0999C38.2 93.8999 38 94.6999 37.9 95.5999C37.7 96.9999 37.5 98.4999 37.2 99.8999C37.1 100.7 37 101.4 36.9 102.2C36.6 103.9 35.8 105.4 34.4 106.6C33.6 107.3 32.7 107.8 31.7 108.1C31.1 108.3 30.5 108.5 29.9 108.7C29.8 108.7 29.6 108.8 29.4 108.8C29.4 108.7 29.4 108.7 29.4 108.6C29.6 107.3 29.9 106 30.1 104.7C30.5 102.3 30.9 99.9999 31.3 97.5999C31.4 96.9999 31.5 96.3999 31.6 95.7999C31.6 95.4999 31.7 95.1999 31.6 94.8999C31.6 94.3999 31.3 93.9999 30.8 93.7999C30.6 93.6999 30.3 93.6999 30.1 93.6999C29.6 93.6999 29 93.6999 28.5 93.6999C24.8 93.6999 21.2 93.6999 17.5 93.6999C17.5 93.7999 17.4 93.7999 17.1 93.7999Z" fill="#0080FA"/>
<path d="M173.6 93.7999C173.6 93.6999 173.6 93.5999 173.6 93.4999C173.9 91.3999 174.9 89.6999 176.7 88.5999C177.7 87.9999 178.8 87.6999 180 87.5999C181.2 87.5999 182.4 87.5999 183.6 87.5999C185.8 87.5999 188 87.5999 190.3 87.5999C190.9 87.5999 191.6 87.6999 192.2 87.8999C193.3 88.2999 194.2 89.0999 194.6 90.2999C194.9 91.1999 194.9 92.1999 194.8 93.0999C194.7 94.0999 194.5 95.1999 194.3 96.1999C194.1 97.1999 194 98.1999 193.8 99.1999C193.7 99.9999 193.6 100.9 193.4 101.7C192.9 104.7 191.4 106.8 188.6 108C187.8 108.3 187 108.5 186.2 108.8C186.1 108.8 186.1 108.8 186 108.8C186.1 108.4 186.1 108.1 186.2 107.7C186.5 106 186.8 104.4 187.1 102.8C187.4 101.4 187.6 99.9999 187.8 98.4999C187.9 97.6999 188.1 96.7999 188.2 95.9999C188.2 95.6999 188.3 95.4999 188.3 95.1999C188.3 94.2999 187.8 93.6999 186.9 93.6999C186.8 93.6999 186.8 93.6999 186.7 93.6999C182.5 93.6999 178.3 93.6999 174.1 93.6999C173.9 93.7999 173.7 93.7999 173.6 93.7999Z" fill="#0080FA"/>
</svg>
